<?xml version="1.0" encoding="UTF-8"?>
<svg xmlns="http://www.w3.org/2000/svg" xmlns:xlink="http://www.w3.org/1999/xlink" viewBox="0 0 1080 1920">
  <defs>
    <linearGradient id="linear-gradient" x1="540" y1="17.64" x2="540" y2="1928.96" gradientUnits="userSpaceOnUse">
      <stop offset="0" stop-color="#3a1913"/>
      <stop offset="1" stop-color="#4c2319"/>
    </linearGradient>
    <linearGradient id="linear-gradient-2" x1="847.38" y1="-2.12" x2="847.38" y2="1887.72" gradientUnits="userSpaceOnUse">
      <stop offset="0" stop-color="#4c2319"/>
      <stop offset="1" stop-color="#7a4d36"/>
    </linearGradient>
    <linearGradient id="linear-gradient-3" x1="940.75" x2="940.75" y2="1887.72" xlink:href="#linear-gradient-2"/>
    <linearGradient id="linear-gradient-4" x1="120.83" y1="-2.12" x2="120.83" y2="1887.72" xlink:href="#linear-gradient-2"/>
    <linearGradient id="linear-gradient-5" x1="464.04" y1="-2.12" x2="464.04" y2="1887.72" xlink:href="#linear-gradient-2"/>
    <linearGradient id="linear-gradient-6" x1="509" y1="-2.12" x2="509" y2="1887.72" xlink:href="#linear-gradient-2"/>
    <linearGradient id="linear-gradient-7" x1="745.05" y1="-2.12" x2="745.05" y2="1887.72" xlink:href="#linear-gradient-2"/>
    <linearGradient id="linear-gradient-8" x1="214.21" y1="-2.12" x2="214.21" y2="1887.72" xlink:href="#linear-gradient-2"/>
    <linearGradient id="linear-gradient-9" x1="675.49" y1="-2.12" x2="675.49" y2="1887.72" xlink:href="#linear-gradient-2"/>
    <linearGradient id="linear-gradient-10" x1="438.29" y1="-2.12" x2="438.29" y2="1887.72" xlink:href="#linear-gradient-2"/>
    <linearGradient id="linear-gradient-11" x1="536.81" y1="-2.12" x2="536.81" y2="1887.72" xlink:href="#linear-gradient-2"/>
    <linearGradient id="linear-gradient-12" x1="1057.29" y1="-2.12" x2="1057.29" y2="1887.72" xlink:href="#linear-gradient-2"/>
    <linearGradient id="linear-gradient-13" x1="113.96" y1="-2.12" x2="113.96" y2="1887.72" xlink:href="#linear-gradient-2"/>
    <linearGradient id="linear-gradient-14" x1="144.2" y1="-2.12" x2="144.2" y2="1887.72" xlink:href="#linear-gradient-2"/>
    <linearGradient id="linear-gradient-15" x1="945.23" y1="-2.12" x2="945.23" y2="1887.72" xlink:href="#linear-gradient-2"/>
    <linearGradient id="linear-gradient-16" x1="158.85" y1="-2.12" x2="158.85" y2="1887.72" xlink:href="#linear-gradient-2"/>
    <linearGradient id="linear-gradient-17" x1="951.8" y1="-2.12" x2="951.8" y2="1887.72" xlink:href="#linear-gradient-2"/>
    <linearGradient id="linear-gradient-18" x1="881.47" x2="881.47" y2="1887.72" xlink:href="#linear-gradient-2"/>
    <linearGradient id="linear-gradient-19" x1="859.16" y1="-2.12" x2="859.16" y2="1887.72" xlink:href="#linear-gradient-2"/>
    <linearGradient id="linear-gradient-20" x1="166.55" y1="-2.12" x2="166.55" y2="1887.72" xlink:href="#linear-gradient-2"/>
    <linearGradient id="linear-gradient-21" x1="535.38" y1="-2.12" x2="535.38" y2="1887.72" xlink:href="#linear-gradient-2"/>
    <linearGradient id="linear-gradient-22" x1="668.3" y1="-2.12" x2="668.3" y2="1887.72" xlink:href="#linear-gradient-2"/>
    <linearGradient id="linear-gradient-23" x1="179.29" y1="4.63" x2="179.29" y2="1932.42" gradientUnits="userSpaceOnUse">
      <stop offset="0" stop-color="#7a4d36"/>
      <stop offset="1" stop-color="#a37b54"/>
    </linearGradient>
    <clipPath id="clippath">
      <line x1="-12.71" y1="600.75" x2="371.29" y2="565.3" fill="url(#linear-gradient-23)" stroke-width="0"/>
    </clipPath>
    <linearGradient id="linear-gradient-24" x1="179.29" y1="4.63" x2="179.29" y2="1932.42" xlink:href="#linear-gradient-23"/>
    <linearGradient id="linear-gradient-25" x1="179.29" y1="4.63" x2="179.29" y2="1932.42" xlink:href="#linear-gradient-23"/>
    <linearGradient id="linear-gradient-26" x1="179.29" y1="4.63" x2="179.29" y2="1932.42" xlink:href="#linear-gradient-23"/>
    <linearGradient id="linear-gradient-27" x1="179.29" y1="4.63" x2="179.29" y2="1932.42" xlink:href="#linear-gradient-23"/>
    <linearGradient id="linear-gradient-28" x1="179.29" y1="14.9" x2="179.29" y2="1908.46" gradientTransform="translate(54.35 -14.01) rotate(5.27)" xlink:href="#linear-gradient-23"/>
    <linearGradient id="linear-gradient-29" x1="758.54" y1="4.63" x2="758.54" y2="1932.42" xlink:href="#linear-gradient-23"/>
    <linearGradient id="linear-gradient-30" x1="758.54" y1="4.63" x2="758.54" y2="1932.42" xlink:href="#linear-gradient-23"/>
    <clipPath id="clippath-1">
      <line x1="427.66" y1="560.28" x2="1089.42" y2="495.79" fill="url(#linear-gradient-30)" stroke-width="0"/>
    </clipPath>
    <linearGradient id="linear-gradient-31" x1="758.54" y1="4.63" x2="758.54" y2="1932.42" xlink:href="#linear-gradient-23"/>
    <linearGradient id="linear-gradient-32" x1="758.54" y1="4.63" x2="758.54" y2="1932.42" xlink:href="#linear-gradient-23"/>
    <linearGradient id="linear-gradient-33" x1="758.54" y1="4.63" x2="758.54" y2="1932.42" xlink:href="#linear-gradient-23"/>
    <linearGradient id="linear-gradient-34" x1="758.54" y1="4.63" x2="758.54" y2="1932.42" xlink:href="#linear-gradient-23"/>
    <linearGradient id="linear-gradient-35" x1="758.54" y1="4.63" x2="758.54" y2="1932.42" xlink:href="#linear-gradient-23"/>
    <linearGradient id="linear-gradient-36" x1="758.54" y1="4.63" x2="758.54" y2="1932.42" xlink:href="#linear-gradient-23"/>
    <linearGradient id="linear-gradient-37" x1="758.54" y1="10.54" x2="758.54" y2="1916.55" gradientTransform="translate(54.8 -71.1) rotate(5.57)" xlink:href="#linear-gradient-23"/>
    <linearGradient id="linear-gradient-38" x1="112.6" y1="4.63" x2="112.6" y2="1932.42" xlink:href="#linear-gradient-23"/>
    <linearGradient id="linear-gradient-39" x1="112.6" y1="4.63" x2="112.6" y2="1932.42" xlink:href="#linear-gradient-23"/>
    <clipPath id="clippath-2">
      <line x1="-10.57" y1="188.39" x2="235.78" y2="223.74" fill="url(#linear-gradient-39)" stroke-width="0"/>
    </clipPath>
    <linearGradient id="linear-gradient-40" x1="112.6" y1="4.63" x2="112.6" y2="1932.42" xlink:href="#linear-gradient-23"/>
    <linearGradient id="linear-gradient-41" x1="112.6" y1="4.63" x2="112.6" y2="1932.42" xlink:href="#linear-gradient-23"/>
    <linearGradient id="linear-gradient-42" x1="112.6" y1="4.63" x2="112.6" y2="1932.42" xlink:href="#linear-gradient-23"/>
    <linearGradient id="linear-gradient-43" x1="112.6" y1="10.02" x2="112.6" y2="1886.16" gradientTransform="translate(300.59 65.34) rotate(81.83)" xlink:href="#linear-gradient-23"/>
    <linearGradient id="linear-gradient-44" x1="536.81" y1="8.33" x2="536.81" y2="1908.75" gradientTransform="translate(725.58 -303) rotate(82.09)" xlink:href="#linear-gradient-23"/>
    <linearGradient id="linear-gradient-45" x1="976.43" y1="4.63" x2="976.43" y2="1932.42" xlink:href="#linear-gradient-23"/>
    <linearGradient id="linear-gradient-46" x1="976.43" y1="4.63" x2="976.43" y2="1932.42" xlink:href="#linear-gradient-23"/>
    <clipPath id="clippath-3">
      <line x1="847.38" y1="307.28" x2="1105.48" y2="343.7" fill="url(#linear-gradient-46)" stroke-width="0"/>
    </clipPath>
    <linearGradient id="linear-gradient-47" x1="976.43" y1="4.63" x2="976.43" y2="1932.42" xlink:href="#linear-gradient-23"/>
    <linearGradient id="linear-gradient-48" x1="976.43" y1="4.63" x2="976.43" y2="1932.42" xlink:href="#linear-gradient-23"/>
    <linearGradient id="linear-gradient-49" x1="976.43" y1="4.63" x2="976.43" y2="1932.42" xlink:href="#linear-gradient-23"/>
    <linearGradient id="linear-gradient-50" x1="976.43" y1="4.63" x2="976.43" y2="1932.42" xlink:href="#linear-gradient-23"/>
    <linearGradient id="linear-gradient-51" x1="976.43" y1="12.89" x2="976.43" y2="1891.01" gradientTransform="translate(1162.31 -686.84) rotate(81.97)" xlink:href="#linear-gradient-23"/>
    <linearGradient id="linear-gradient-52" x1="482.87" y1="4.63" x2="482.87" y2="1932.42" xlink:href="#linear-gradient-23"/>
    <linearGradient id="linear-gradient-53" x1="482.87" y1="4.63" x2="482.87" y2="1932.42" xlink:href="#linear-gradient-23"/>
    <clipPath id="clippath-4">
      <line x1="245.1" y1="46.93" x2="720.63" y2="84.12" fill="url(#linear-gradient-53)" stroke-width="0"/>
    </clipPath>
    <linearGradient id="linear-gradient-54" x1="676.42" y1="4.63" x2="676.42" y2="1932.42" xlink:href="#linear-gradient-23"/>
    <linearGradient id="linear-gradient-55" x1="482.87" y1="4.63" x2="482.87" y2="1932.42" xlink:href="#linear-gradient-23"/>
    <linearGradient id="linear-gradient-56" x1="482.87" y1="4.63" x2="482.87" y2="1932.42" xlink:href="#linear-gradient-23"/>
    <linearGradient id="linear-gradient-57" x1="482.87" y1="4.63" x2="482.87" y2="1932.42" xlink:href="#linear-gradient-23"/>
    <linearGradient id="linear-gradient-58" x1="352.8" y1="4.63" x2="352.8" y2="1932.42" xlink:href="#linear-gradient-23"/>
    <linearGradient id="linear-gradient-59" x1="482.87" y1="5.52" x2="482.87" y2="1905.17" gradientTransform="translate(510.54 -420.98) rotate(85.53)" xlink:href="#linear-gradient-23"/>
    <linearGradient id="linear-gradient-60" x1="903.32" y1="9.53" x2="903.32" y2="9.53" xlink:href="#linear-gradient-23"/>
    <linearGradient id="linear-gradient-61" x1="903.32" y1="4.63" x2="903.32" y2="1932.42" xlink:href="#linear-gradient-23"/>
    <linearGradient id="linear-gradient-62" x1="1066.92" y1="9.53" x2="1066.92" y2="9.53" xlink:href="#linear-gradient-23"/>
    <linearGradient id="linear-gradient-63" x1="1066.92" y1="4.63" x2="1066.92" y2="1932.42" xlink:href="#linear-gradient-23"/>
    <linearGradient id="linear-gradient-64" x1="111.46" y1="9.53" x2="111.46" y2="9.53" xlink:href="#linear-gradient-23"/>
    <linearGradient id="linear-gradient-65" x1="111.46" y1="4.63" x2="111.46" y2="1932.42" xlink:href="#linear-gradient-23"/>
    <linearGradient id="linear-gradient-66" x1="510.79" y1="9.53" x2="510.79" y2="9.53" xlink:href="#linear-gradient-23"/>
    <linearGradient id="linear-gradient-67" x1="510.79" y1="4.63" x2="510.79" y2="1932.42" xlink:href="#linear-gradient-23"/>
    <linearGradient id="linear-gradient-68" x1="613.85" y1="4.63" x2="613.85" y2="1932.42" xlink:href="#linear-gradient-23"/>
    <linearGradient id="linear-gradient-69" x1="613.85" y1="4.63" x2="613.85" y2="1932.42" xlink:href="#linear-gradient-23"/>
    <clipPath id="clippath-9">
      <line x1="445.71" y1="838.53" x2="781.99" y2="795.42" fill="url(#linear-gradient-69)" stroke-width="0"/>
    </clipPath>
    <linearGradient id="linear-gradient-70" x1="613.85" y1="4.63" x2="613.85" y2="1932.42" xlink:href="#linear-gradient-23"/>
    <linearGradient id="linear-gradient-71" x1="613.85" y1="4.63" x2="613.85" y2="1932.42" xlink:href="#linear-gradient-23"/>
    <linearGradient id="linear-gradient-72" x1="613.85" y1="4.63" x2="613.85" y2="1932.42" xlink:href="#linear-gradient-23"/>
    <linearGradient id="linear-gradient-73" x1="613.85" y1="4.63" x2="613.85" y2="1932.42" xlink:href="#linear-gradient-23"/>
    <linearGradient id="linear-gradient-74" x1="613.85" y1="21.34" x2="613.85" y2="1909.47" gradientTransform="translate(108.87 -71.42) rotate(7.31)" xlink:href="#linear-gradient-23"/>
    <linearGradient id="linear-gradient-75" x1="956.07" y1="4.63" x2="956.07" y2="1932.42" xlink:href="#linear-gradient-23"/>
    <linearGradient id="linear-gradient-76" x1="956.07" y1="4.63" x2="956.07" y2="1932.42" xlink:href="#linear-gradient-23"/>
    <clipPath id="clippath-10">
      <line x1="825.93" y1="789.26" x2="1086.2" y2="759.27" fill="url(#linear-gradient-76)" stroke-width="0"/>
    </clipPath>
    <linearGradient id="linear-gradient-77" x1="956.07" y1="4.63" x2="956.07" y2="1932.42" xlink:href="#linear-gradient-23"/>
    <linearGradient id="linear-gradient-78" x1="956.07" y1="4.63" x2="956.07" y2="1932.42" xlink:href="#linear-gradient-23"/>
    <linearGradient id="linear-gradient-79" x1="956.07" y1="4.63" x2="956.07" y2="1932.42" xlink:href="#linear-gradient-23"/>
    <linearGradient id="linear-gradient-80" x1="956.07" y1="23.81" x2="956.07" y2="1903.55" gradientTransform="translate(94.91 -104.35) rotate(6.57)" xlink:href="#linear-gradient-23"/>
    <linearGradient id="linear-gradient-81" x1="135.63" y1="4.63" x2="135.63" y2="1932.42" xlink:href="#linear-gradient-23"/>
    <linearGradient id="linear-gradient-82" x1="135.63" y1="4.63" x2="135.63" y2="1932.42" xlink:href="#linear-gradient-23"/>
    <clipPath id="clippath-11">
      <line x1="-6.28" y1="982.05" x2="277.55" y2="1059.46" fill="url(#linear-gradient-82)" stroke-width="0"/>
    </clipPath>
    <linearGradient id="linear-gradient-83" x1="135.63" y1="4.63" x2="135.63" y2="1932.42" xlink:href="#linear-gradient-23"/>
    <linearGradient id="linear-gradient-84" x1="135.63" y1="4.63" x2="135.63" y2="1932.42" xlink:href="#linear-gradient-23"/>
    <linearGradient id="linear-gradient-85" x1="135.63" y1="4.63" x2="135.63" y2="1932.42" xlink:href="#linear-gradient-23"/>
    <linearGradient id="linear-gradient-86" x1="135.63" y1="4.63" x2="135.63" y2="1932.42" xlink:href="#linear-gradient-23"/>
    <linearGradient id="linear-gradient-87" x1="135.63" y1="4.63" x2="135.63" y2="1932.42" xlink:href="#linear-gradient-23"/>
    <linearGradient id="linear-gradient-88" x1="135.63" y1="4.63" x2="135.63" y2="1932.42" xlink:href="#linear-gradient-23"/>
    <linearGradient id="linear-gradient-89" x1="135.63" y1="4.63" x2="135.63" y2="1932.42" xlink:href="#linear-gradient-23"/>
    <linearGradient id="linear-gradient-90" x1="135.63" y1="28.81" x2="135.63" y2="1910.72" gradientTransform="translate(1084.73 621.32) rotate(74.74)" xlink:href="#linear-gradient-23"/>
    <linearGradient id="linear-gradient-91" x1="503.81" y1="4.63" x2="503.81" y2="1932.42" xlink:href="#linear-gradient-23"/>
    <linearGradient id="linear-gradient-92" x1="503.81" y1="4.63" x2="503.81" y2="1932.42" xlink:href="#linear-gradient-23"/>
    <clipPath id="clippath-12">
      <line x1="317.71" y1="1073.09" x2="689.91" y2="1174.1" fill="url(#linear-gradient-92)" stroke-width="0"/>
    </clipPath>
    <linearGradient id="linear-gradient-93" x1="503.81" y1="4.63" x2="503.81" y2="1932.42" xlink:href="#linear-gradient-23"/>
    <linearGradient id="linear-gradient-94" x1="503.81" y1="4.63" x2="503.81" xlink:href="#linear-gradient-23"/>
    <linearGradient id="linear-gradient-95" x1="503.81" y1="4.63" x2="503.81" y2="1932.42" xlink:href="#linear-gradient-23"/>
    <linearGradient id="linear-gradient-96" x1="503.81" y1="4.63" x2="503.81" y2="1932.42" xlink:href="#linear-gradient-23"/>
    <linearGradient id="linear-gradient-97" x1="503.81" y1="4.63" x2="503.81" y2="1932.42" xlink:href="#linear-gradient-23"/>
    <linearGradient id="linear-gradient-98" x1="503.81" y1="4.63" x2="503.81" y2="1932.42" xlink:href="#linear-gradient-23"/>
    <linearGradient id="linear-gradient-99" x1="503.81" y1="4.63" x2="503.81" y2="1932.42" xlink:href="#linear-gradient-23"/>
    <linearGradient id="linear-gradient-100" x1="503.81" y1="4.63" x2="503.81" y2="1932.42" xlink:href="#linear-gradient-23"/>
    <linearGradient id="linear-gradient-101" x1="503.81" y1="25.44" x2="503.81" y2="1917.37" gradientTransform="translate(1456.23 343.09) rotate(74.82)" xlink:href="#linear-gradient-23"/>
    <linearGradient id="linear-gradient-102" x1="924.47" y1="4.63" x2="924.47" y2="1932.42" xlink:href="#linear-gradient-23"/>
    <linearGradient id="linear-gradient-103" x1="924.47" y1="4.63" x2="924.47" y2="1932.42" xlink:href="#linear-gradient-23"/>
    <clipPath id="clippath-13">
      <line x1="734.89" y1="1188.77" x2="1114.05" y2="1295.87" fill="url(#linear-gradient-103)" stroke-width="0"/>
    </clipPath>
    <linearGradient id="linear-gradient-104" x1="924.47" y1="4.63" x2="924.47" y2="1932.42" xlink:href="#linear-gradient-23"/>
    <linearGradient id="linear-gradient-105" x1="924.47" y1="4.63" x2="924.47" y2="1932.42" xlink:href="#linear-gradient-23"/>
    <linearGradient id="linear-gradient-106" x1="924.47" y1="4.63" x2="924.47" y2="1932.42" xlink:href="#linear-gradient-23"/>
    <linearGradient id="linear-gradient-107" x1="924.47" y1="4.63" x2="924.47" y2="1932.42" xlink:href="#linear-gradient-23"/>
    <linearGradient id="linear-gradient-108" x1="924.47" y1="4.63" x2="924.47" y2="1932.42" xlink:href="#linear-gradient-23"/>
    <linearGradient id="linear-gradient-109" x1="924.47" y1="4.63" x2="924.47" y2="1932.42" xlink:href="#linear-gradient-23"/>
    <linearGradient id="linear-gradient-110" x1="924.47" y1="4.63" x2="924.47" y2="1932.42" xlink:href="#linear-gradient-23"/>
    <linearGradient id="linear-gradient-111" x1="924.47" y1="4.63" x2="924.47" y2="1932.42" xlink:href="#linear-gradient-23"/>
    <linearGradient id="linear-gradient-112" x1="924.47" y1="4.63" x2="924.47" y2="1932.42" xlink:href="#linear-gradient-23"/>
    <linearGradient id="linear-gradient-113" x1="924.47" y1="4.63" x2="924.47" y2="1932.42" gradientTransform="translate(1868.69 14.94) rotate(74.23)" xlink:href="#linear-gradient-23"/>
    <linearGradient id="linear-gradient-114" x1="158.82" y1="7.63" x2="158.82" y2="1935.42" xlink:href="#linear-gradient-23"/>
    <linearGradient id="linear-gradient-115" x1="158.82" y1="7.63" x2="158.82" y2="1935.42" xlink:href="#linear-gradient-23"/>
    <clipPath id="clippath-14">
      <line x1="-6.28" y1="1533.44" x2="323.92" y2="1508.8" fill="url(#linear-gradient-115)" stroke-width="0"/>
    </clipPath>
    <linearGradient id="linear-gradient-116" x1="158.82" y1="7.63" x2="158.82" y2="1935.42" xlink:href="#linear-gradient-23"/>
    <linearGradient id="linear-gradient-117" x1="158.82" y1="7.63" x2="158.82" y2="1935.42" xlink:href="#linear-gradient-23"/>
    <linearGradient id="linear-gradient-118" x1="158.82" y1="7.63" x2="158.82" y2="1935.42" xlink:href="#linear-gradient-23"/>
    <linearGradient id="linear-gradient-119" x1="158.82" y1="36.63" x2="158.82" y2="1927.48" gradientTransform="translate(113.67 -7.6) rotate(4.27)" xlink:href="#linear-gradient-23"/>
    <linearGradient id="linear-gradient-120" x1="550.13" y1="4.63" x2="550.13" y2="1932.42" gradientTransform="translate(18.36 -6.64) rotate(.7)" xlink:href="#linear-gradient-23"/>
    <linearGradient id="linear-gradient-121" x1="550.13" y1="4.63" x2="550.13" y2="1932.42" gradientTransform="translate(18.36 -6.64) rotate(.7)" xlink:href="#linear-gradient-23"/>
    <clipPath id="clippath-15">
      <line x1="367.35" y1="1503.56" x2="732.91" y2="1479.13" fill="url(#linear-gradient-121)" stroke-width="0"/>
    </clipPath>
    <linearGradient id="linear-gradient-122" x1="550.13" y1="4.63" x2="550.13" y2="1932.42" gradientTransform="translate(2028.89 928.46) rotate(90)" xlink:href="#linear-gradient-23"/>
    <linearGradient id="linear-gradient-123" x1="550.13" y1="4.63" x2="550.13" y2="1932.42" gradientTransform="translate(2037.31 936.99) rotate(90)" xlink:href="#linear-gradient-23"/>
    <linearGradient id="linear-gradient-124" x1="550.13" y1="4.63" x2="550.13" y2="1932.42" gradientTransform="translate(2049.9 949.74) rotate(90)" xlink:href="#linear-gradient-23"/>
    <linearGradient id="linear-gradient-125" x1="550.13" y1="31.38" x2="550.13" y2="1924.48" gradientTransform="translate(119.35 -38.75) rotate(4.52)" xlink:href="#linear-gradient-23"/>
    <linearGradient id="linear-gradient-126" x1="940" y1="4.63" x2="940" y2="1932.42" xlink:href="#linear-gradient-23"/>
    <linearGradient id="linear-gradient-127" x1="940" y1="4.63" x2="940" y2="1932.42" xlink:href="#linear-gradient-23"/>
    <clipPath id="clippath-16">
      <line x1="779.88" y1="1477.95" x2="1100.13" y2="1456.53" fill="url(#linear-gradient-127)" stroke-width="0"/>
    </clipPath>
    <linearGradient id="linear-gradient-128" x1="940" y1="4.63" x2="940" y2="1932.42" xlink:href="#linear-gradient-23"/>
    <linearGradient id="linear-gradient-129" x1="940" y1="4.63" x2="940" y2="1932.42" xlink:href="#linear-gradient-23"/>
    <linearGradient id="linear-gradient-130" x1="940" y1="32.54" x2="940" y2="1923.54" gradientTransform="translate(100 -59.45) rotate(3.83)" xlink:href="#linear-gradient-23"/>
    <linearGradient id="linear-gradient-131" x1="152.89" y1="43.71" x2="152.89" y2="1928.02" gradientTransform="translate(400.87 11) rotate(13.2)" xlink:href="#linear-gradient-23"/>
    <linearGradient id="linear-gradient-132" x1="732.77" y1="38.16" x2="732.77" y2="1930.57" gradientTransform="translate(1564.28 42.66) rotate(46.73)" xlink:href="#linear-gradient-23"/>
    <linearGradient id="linear-gradient-133" x1="990.55" y1="40.5" x2="990.55" y2="1929.54" gradientTransform="translate(958.15 -255.63) rotate(28.06)" xlink:href="#linear-gradient-23"/>
  </defs>
  <g id="Layer_1" data-name="Layer 1">
    <rect x="0" width="1080" height="1920" fill="url(#linear-gradient)" stroke-width="0"/>
    <g>
      <polygon points="794.91 0 683.57 247.57 1011.19 293.03 1009.58 0 794.91 0" fill="url(#linear-gradient-2)" stroke-width="0"/>
      <polygon points="801.5 488.28 1080 461.45 1080 327.82 839.81 294.49 801.5 488.28" fill="url(#linear-gradient-3)" stroke-width="0"/>
      <polygon points="0 565.49 233.54 542.99 241.66 211.48 0 177.95 0 565.49" fill="url(#linear-gradient-4)" stroke-width="0"/>
      <polygon points="657.77 243.99 735.48 71.21 242.07 35.69 192.6 179.44 657.77 243.99" fill="url(#linear-gradient-5)" stroke-width="0"/>
      <polygon points="250.49 11.24 746.4 46.93 767.5 0 254.36 0 250.49 11.24" fill="url(#linear-gradient-6)" stroke-width="0"/>
      <polygon points="1080 486.57 410.09 551.1 431.26 801.99 1080 721 1080 486.57" fill="url(#linear-gradient-7)" stroke-width="0"/>
      <polygon points="385.21 553.5 0 590.6 0 946.58 428.42 1065.76 385.21 553.5" fill="url(#linear-gradient-8)" stroke-width="0"/>
      <polygon points="785.23 782.99 433.36 826.92 453.89 1070.2 454.65 1071.98 917.62 1201.84 785.23 782.99" fill="url(#linear-gradient-9)" stroke-width="0"/>
      <polygon points="312.51 1059.46 176.22 1482.87 657.39 1449.9 700.37 1167.36 312.51 1059.46" fill="url(#linear-gradient-10)" stroke-width="0"/>
      <polygon points="775.52 490.78 815.01 291.05 266.58 214.94 258.61 540.58 775.52 490.78" fill="url(#linear-gradient-11)" stroke-width="0"/>
      <polygon points="1036.21 296.5 1080 302.58 1080 0 1034.58 0 1036.21 296.5" fill="url(#linear-gradient-12)" stroke-width="0"/>
      <polygon points="167.36 175.94 227.92 0 0 0 0 152.71 167.36 175.94" fill="url(#linear-gradient-13)" stroke-width="0"/>
      <polygon points="149.98 1482.79 288.41 1052.76 0 972.52 0 1494.94 149.45 1484.7 149.98 1482.79" fill="url(#linear-gradient-14)" stroke-width="0"/>
      <polygon points="810.45 779.85 946.37 1209.84 1080 1247.01 1080 746.2 810.45 779.85" fill="url(#linear-gradient-15)" stroke-width="0"/>
      <polygon points="317.71 1687.12 0 1759.32 0 1920 298.84 1920 317.71 1687.12" fill="url(#linear-gradient-16)" stroke-width="0"/>
      <polygon points="823.61 1860.43 886.17 1920 1080 1920 1080 1721.39 823.61 1860.43" fill="url(#linear-gradient-17)" stroke-width="0"/>
      <polygon points="682.95 1448.15 1080 1420.95 1080 1272.96 724.63 1174.1 682.95 1448.15" fill="url(#linear-gradient-18)" stroke-width="0"/>
      <polygon points="1080 1446.01 777.92 1466.7 638.32 1683.99 804.58 1842.31 1080 1692.95 1080 1446.01" fill="url(#linear-gradient-19)" stroke-width="0"/>
      <polygon points="319.82 1661 333.09 1497.18 0 1520 0 1733.68 319.82 1661" fill="url(#linear-gradient-20)" stroke-width="0"/>
      <polygon points="456.97 1920 746.84 1468.83 358.31 1495.45 323.92 1920 456.97 1920" fill="url(#linear-gradient-21)" stroke-width="0"/>
      <polygon points="624.56 1705.41 486.69 1920 849.91 1920 624.56 1705.41" fill="url(#linear-gradient-22)" stroke-width="0"/>
    </g>
  </g>
  <g id="Layer_2" data-name="Layer 2">
    <g>
      <g>
        <g>
          <line x1="-12.71" y1="600.75" x2="371.29" y2="565.3" fill="url(#linear-gradient-23)"/>
          <g clip-path="url(#clippath)">
            <rect x="-12.71" y="565.3" width="384" height="1.75" fill="url(#linear-gradient-24)" stroke-width="0"/>
            <rect x="-12.71" y="567.04" width="384" height="13.63" fill="url(#linear-gradient-25)" stroke-width="0"/>
            <rect x="-12.71" y="580.68" width="384" height="13.63" fill="url(#linear-gradient-26)" stroke-width="0"/>
            <rect x="-12.71" y="594.31" width="384" height="6.45" fill="url(#linear-gradient-27)" stroke-width="0"/>
          </g>
        </g>
        <rect x="-13.53" y="578.53" width="385.63" height="9" rx="4.5" ry="4.5" transform="translate(-52.83 18.95) rotate(-5.27)" fill="url(#linear-gradient-28)" stroke-width="0"/>
      </g>
      <g>
        <g>
          <line x1="427.66" y1="560.28" x2="1089.42" y2="495.79" fill="url(#linear-gradient-29)"/>
          <g clip-path="url(#clippath-1)">
            <rect x="427.66" y="495.79" width="661.75" height="3.1" fill="url(#linear-gradient-31)" stroke-width="0"/>
            <rect x="427.66" y="498.89" width="661.75" height="13.63" fill="url(#linear-gradient-32)" stroke-width="0"/>
            <rect x="427.66" y="512.52" width="661.75" height="13.63" fill="url(#linear-gradient-33)" stroke-width="0"/>
            <rect x="427.66" y="526.15" width="661.75" height="13.63" fill="url(#linear-gradient-34)" stroke-width="0"/>
            <rect x="427.66" y="539.78" width="661.75" height="13.63" fill="url(#linear-gradient-35)" stroke-width="0"/>
            <rect x="427.66" y="553.41" width="661.75" height="6.86" fill="url(#linear-gradient-36)" stroke-width="0"/>
          </g>
        </g>
        <rect x="426.09" y="523.53" width="664.89" height="9" rx="4.5" ry="4.5" transform="translate(-47.65 76.08) rotate(-5.57)" fill="url(#linear-gradient-37)" stroke-width="0"/>
      </g>
      <g>
        <g>
          <line x1="-10.57" y1="188.39" x2="235.78" y2="223.74" fill="url(#linear-gradient-38)"/>
          <g clip-path="url(#clippath-2)">
            <rect x="-10.57" y="188.39" width="246.34" height="10.62" fill="url(#linear-gradient-40)" stroke-width="0"/>
            <rect x="-10.57" y="199.01" width="246.34" height="13.63" fill="url(#linear-gradient-41)" stroke-width="0"/>
            <rect x="-10.57" y="212.64" width="246.34" height="11.1" fill="url(#linear-gradient-42)" stroke-width="0"/>
          </g>
        </g>
        <rect x="108.1" y="81.63" width="9" height="248.87" rx="4.5" ry="4.5" transform="translate(-107.36 288.26) rotate(-81.83)" fill="url(#linear-gradient-43)" stroke-width="0"/>
      </g>
      <rect x="532.31" y="2.88" width="9" height="524.67" rx="4.5" ry="4.5" transform="translate(200.21 760.39) rotate(-82.09)" fill="url(#linear-gradient-44)" stroke-width="0"/>
      <g>
        <g>
          <line x1="847.38" y1="307.28" x2="1105.48" y2="343.7" fill="url(#linear-gradient-45)"/>
          <g clip-path="url(#clippath-3)">
            <rect x="847.38" y="307.28" width="258.1" height=".78" fill="url(#linear-gradient-47)" stroke-width="0"/>
            <rect x="847.38" y="308.06" width="258.1" height="13.63" fill="url(#linear-gradient-48)" stroke-width="0"/>
            <rect x="847.38" y="321.69" width="258.1" height="13.63" fill="url(#linear-gradient-49)" stroke-width="0"/>
            <rect x="847.38" y="335.32" width="258.1" height="8.38" fill="url(#linear-gradient-50)" stroke-width="0"/>
          </g>
        </g>
        <rect x="971.93" y="195.16" width="9" height="260.66" rx="4.5" ry="4.5" transform="translate(517.72 1246.87) rotate(-81.97)" fill="url(#linear-gradient-51)" stroke-width="0"/>
      </g>
      <g>
        <g>
          <line x1="245.1" y1="46.93" x2="720.63" y2="84.12" fill="url(#linear-gradient-52)"/>
          <g clip-path="url(#clippath-4)">
            <polygon points="720.63 48.84 632.21 46.93 720.63 46.93 720.63 48.84" fill="url(#linear-gradient-54)" stroke-width="0"/>
            <polygon points="720.63 62.47 245.1 52.2 245.1 46.93 632.21 46.93 720.63 48.84 720.63 62.47" fill="url(#linear-gradient-55)" stroke-width="0"/>
            <polygon points="720.63 76.1 245.1 65.84 245.1 52.2 720.63 62.47 720.63 76.1" fill="url(#linear-gradient-56)" stroke-width="0"/>
            <polygon points="460.51 84.12 245.1 79.47 245.1 65.84 720.63 76.1 720.63 84.12 460.51 84.12" fill="url(#linear-gradient-57)" stroke-width="0"/>
            <polygon points="245.1 79.47 460.51 84.12 245.1 84.12 245.1 79.47" fill="url(#linear-gradient-58)" stroke-width="0"/>
          </g>
        </g>
        <rect x="478.37" y="-172.97" width="9" height="476.99" rx="4.5" ry="4.5" transform="translate(379.89 541.81) rotate(-85.53)" fill="url(#linear-gradient-59)" stroke-width="0"/>
      </g>
      <g>
        <line x1="797.01" y1="9.53" x2="1009.63" y2="9.53" fill="url(#linear-gradient-60)"/>
        <rect x="797.01" y="5.03" width="212.61" height="9" rx="4.5" ry="4.5" fill="url(#linear-gradient-61)" stroke-width="0"/>
      </g>
      <g>
        <line x1="1043.36" y1="9.53" x2="1090.49" y2="9.53" fill="url(#linear-gradient-62)"/>
        <rect x="1043.36" y="5.03" width="47.13" height="9" rx="4.5" ry="4.5" fill="url(#linear-gradient-63)" stroke-width="0"/>
      </g>
      <g>
        <line x1="8.71" y1="9.53" x2="214.21" y2="9.53" fill="url(#linear-gradient-64)"/>
        <rect x="8.71" y="5.03" width="205.5" height="9" rx="4.5" ry="4.5" fill="url(#linear-gradient-65)" stroke-width="0"/>
      </g>
      <g>
        <line x1="267.32" y1="9.53" x2="754.26" y2="9.53" fill="url(#linear-gradient-66)"/>
        <rect x="267.32" y="5.03" width="486.94" height="9" rx="4.5" ry="4.5" fill="url(#linear-gradient-67)" stroke-width="0"/>
      </g>
      <g>
        <g>
          <line x1="445.71" y1="838.53" x2="781.99" y2="795.42" fill="url(#linear-gradient-68)"/>
          <g clip-path="url(#clippath-9)">
            <rect x="445.71" y="795.42" width="336.28" height="3.35" fill="url(#linear-gradient-70)" stroke-width="0"/>
            <rect x="445.71" y="798.77" width="336.28" height="13.63" fill="url(#linear-gradient-71)" stroke-width="0"/>
            <rect x="445.71" y="812.4" width="336.28" height="13.63" fill="url(#linear-gradient-72)" stroke-width="0"/>
            <rect x="445.71" y="826.03" width="336.28" height="12.5" fill="url(#linear-gradient-73)" stroke-width="0"/>
          </g>
        </g>
        <rect x="444.33" y="812.47" width="339.03" height="9" rx="4.5" ry="4.5" transform="translate(-98.9 84.69) rotate(-7.31)" fill="url(#linear-gradient-74)" stroke-width="0"/>
      </g>
      <g>
        <g>
          <line x1="825.93" y1="789.26" x2="1086.2" y2="759.27" fill="url(#linear-gradient-75)"/>
          <g clip-path="url(#clippath-10)">
            <rect x="825.93" y="759.27" width="260.27" height="12.24" fill="url(#linear-gradient-77)" stroke-width="0"/>
            <rect x="825.93" y="771.51" width="260.27" height="13.63" fill="url(#linear-gradient-78)" stroke-width="0"/>
            <rect x="825.93" y="785.14" width="260.27" height="4.12" fill="url(#linear-gradient-79)" stroke-width="0"/>
          </g>
        </g>
        <rect x="825.07" y="769.77" width="261.99" height="9" rx="4.5" ry="4.5" transform="translate(-82.34 114.53) rotate(-6.57)" fill="url(#linear-gradient-80)" stroke-width="0"/>
      </g>
      <g>
        <g>
          <line x1="-6.28" y1="982.05" x2="277.55" y2="1059.46" fill="url(#linear-gradient-81)"/>
          <g clip-path="url(#clippath-11)">
            <rect x="-6.28" y="982.05" width="283.83" height="7.55" fill="url(#linear-gradient-83)" stroke-width="0"/>
            <rect x="-6.28" y="989.6" width="283.83" height="13.63" fill="url(#linear-gradient-84)" stroke-width="0"/>
            <rect x="-6.28" y="1003.23" width="283.83" height="13.63" fill="url(#linear-gradient-85)" stroke-width="0"/>
            <rect x="-6.28" y="1016.86" width="283.83" height="13.63" fill="url(#linear-gradient-86)" stroke-width="0"/>
            <rect x="-6.28" y="1030.49" width="283.83" height="13.63" fill="url(#linear-gradient-87)" stroke-width="0"/>
            <rect x="-6.28" y="1044.12" width="283.83" height="13.63" fill="url(#linear-gradient-88)" stroke-width="0"/>
            <rect x="-6.28" y="1057.75" width="283.83" height="1.71" fill="url(#linear-gradient-89)" stroke-width="0"/>
          </g>
        </g>
        <rect x="131.13" y="873.66" width="9" height="294.2" rx="4.5" ry="4.5" transform="translate(-884.84 883.03) rotate(-74.74)" fill="url(#linear-gradient-90)" stroke-width="0"/>
      </g>
      <g>
        <g>
          <line x1="317.71" y1="1073.09" x2="689.91" y2="1174.1" fill="url(#linear-gradient-91)"/>
          <g clip-path="url(#clippath-12)">
            <rect x="317.71" y="1073.09" width="372.2" height="11.92" fill="url(#linear-gradient-93)" stroke-width="0"/>
            <rect x="317.71" y="1085.02" width="372.2" height="13.63" fill="url(#linear-gradient-94)" stroke-width="0"/>
            <rect x="317.71" y="1098.65" width="372.2" height="13.63" fill="url(#linear-gradient-95)" stroke-width="0"/>
            <rect x="317.71" y="1112.28" width="372.2" height="13.63" fill="url(#linear-gradient-96)" stroke-width="0"/>
            <rect x="317.71" y="1125.91" width="372.2" height="13.63" fill="url(#linear-gradient-97)" stroke-width="0"/>
            <rect x="317.71" y="1139.54" width="372.2" height="13.63" fill="url(#linear-gradient-98)" stroke-width="0"/>
            <rect x="317.71" y="1153.17" width="372.2" height="13.63" fill="url(#linear-gradient-99)" stroke-width="0"/>
            <rect x="317.71" y="1166.8" width="372.2" height="7.3" fill="url(#linear-gradient-100)" stroke-width="0"/>
          </g>
        </g>
        <rect x="499.31" y="930.77" width="9" height="385.67" rx="4.5" ry="4.5" transform="translate(-712.52 1315.53) rotate(-74.82)" fill="url(#linear-gradient-101)" stroke-width="0"/>
      </g>
      <g>
        <g>
          <line x1="734.89" y1="1188.77" x2="1114.05" y2="1295.87" fill="url(#linear-gradient-102)"/>
          <g clip-path="url(#clippath-13)">
            <rect x="734.89" y="1188.77" width="379.16" height="5.3" fill="url(#linear-gradient-104)" stroke-width="0"/>
            <rect x="734.89" y="1194.06" width="379.16" height="13.63" fill="url(#linear-gradient-105)" stroke-width="0"/>
            <rect x="734.89" y="1207.69" width="379.16" height="13.63" fill="url(#linear-gradient-106)" stroke-width="0"/>
            <rect x="734.89" y="1221.32" width="379.16" height="13.63" fill="url(#linear-gradient-107)" stroke-width="0"/>
            <rect x="734.89" y="1234.96" width="379.16" height="13.63" fill="url(#linear-gradient-108)" stroke-width="0"/>
            <rect x="734.89" y="1248.59" width="379.16" height="13.63" fill="url(#linear-gradient-109)" stroke-width="0"/>
            <rect x="734.89" y="1262.22" width="379.16" height="13.63" fill="url(#linear-gradient-110)" stroke-width="0"/>
            <rect x="734.89" y="1275.85" width="379.16" height="13.63" fill="url(#linear-gradient-111)" stroke-width="0"/>
            <rect x="734.89" y="1289.48" width="379.16" height="6.39" fill="url(#linear-gradient-112)" stroke-width="0"/>
          </g>
        </g>
        <rect x="919.97" y="1045.32" width="9" height="393.99" transform="translate(-522.38 1794.26) rotate(-74.23)" fill="url(#linear-gradient-113)" stroke-width="0"/>
      </g>
      <g>
        <g>
          <line x1="-6.28" y1="1533.44" x2="323.92" y2="1508.8" fill="url(#linear-gradient-114)"/>
          <g clip-path="url(#clippath-14)">
            <rect x="-6.28" y="1508.8" width="330.2" height="1.77" fill="url(#linear-gradient-116)" stroke-width="0"/>
            <rect x="-6.28" y="1510.57" width="330.2" height="13.63" fill="url(#linear-gradient-117)" stroke-width="0"/>
            <rect x="-6.28" y="1524.2" width="330.2" height="9.23" fill="url(#linear-gradient-118)" stroke-width="0"/>
          </g>
        </g>
        <rect x="-6.74" y="1516.62" width="331.12" height="9" rx="4.5" ry="4.5" transform="translate(-112.79 16.04) rotate(-4.27)" fill="url(#linear-gradient-119)" stroke-width="0"/>
      </g>
      <g>
        <g>
          <line x1="367.35" y1="1503.56" x2="732.91" y2="1479.13" fill="url(#linear-gradient-120)"/>
          <g clip-path="url(#clippath-15)">
            <rect x="548.58" y="1295.98" width="3.43" height="365.23" transform="translate(-934.95 2010.69) rotate(-89.3)" fill="url(#linear-gradient-122)" stroke-width="0"/>
            <rect x="543.37" y="1304.51" width="13.63" height="365.23" transform="translate(-943.59 2019.01) rotate(-89.3)" fill="url(#linear-gradient-123)" stroke-width="0"/>
            <rect x="544.1" y="1317.26" width="11.86" height="365.23" transform="translate(-956.48 2031.44) rotate(-89.3)" fill="url(#linear-gradient-124)" stroke-width="0"/>
          </g>
        </g>
        <rect x="366.95" y="1486.84" width="366.38" height="9" rx="4.5" ry="4.5" transform="translate(-98.14 39.97) rotate(-3.82)" fill="url(#linear-gradient-125)" stroke-width="0"/>
      </g>
      <g>
        <g>
          <line x1="779.88" y1="1477.95" x2="1100.13" y2="1456.53" fill="url(#linear-gradient-126)"/>
          <g clip-path="url(#clippath-16)">
            <rect x="779.88" y="1456.53" width="320.25" height="10.15" fill="url(#linear-gradient-128)" stroke-width="0"/>
            <rect x="779.88" y="1466.68" width="320.25" height="11.27" fill="url(#linear-gradient-129)" stroke-width="0"/>
          </g>
        </g>
        <rect x="779.52" y="1462.74" width="320.96" height="9" rx="4.5" ry="4.5" transform="translate(-95.81 65.99) rotate(-3.83)" fill="url(#linear-gradient-130)" stroke-width="0"/>
      </g>
      <rect x="-4.15" y="1732.78" width="314.09" height="9" rx="4.5" ry="4.5" transform="translate(-392.78 80.85) rotate(-13.2)" fill="url(#linear-gradient-131)" stroke-width="0"/>
      <rect x="728.27" y="1688.65" width="9" height="286.35" rx="4.5" ry="4.5" transform="translate(-1103.3 1109.75) rotate(-46.73)" fill="url(#linear-gradient-132)" stroke-width="0"/>
      <rect x="831.18" y="1784.8" width="318.75" height="9" rx="4.5" ry="4.5" transform="translate(-725.27 676.31) rotate(-28.06)" fill="url(#linear-gradient-133)" stroke-width="0"/>
    </g>
  </g>
</svg>